<svg width="122" height="34" viewBox="0 0 122 34" fill="none" xmlns="http://www.w3.org/2000/svg">
<path d="M39.2676 7.95254C38.6201 7.95254 38.0879 7.76564 37.6707 7.39164C37.2678 7.00331 37.0664 6.52865 37.0664 5.96775C37.0664 5.39242 37.2678 4.91786 37.6707 4.54386C38.0879 4.15553 38.6201 3.96143 39.2676 3.96143C39.9006 3.96143 40.4185 4.15553 40.8213 4.54386C41.2385 4.91786 41.4471 5.39242 41.4471 5.96775C41.4471 6.52865 41.2385 7.00331 40.8213 7.39164C40.4185 7.76564 39.9006 7.95254 39.2676 7.95254ZM41.1018 9.20385V21.2421H37.4117V9.20385H41.1018Z" fill="#0A275C"/>
<path d="M51.113 9.07447C52.5229 9.07447 53.645 9.53471 54.4794 10.4552C55.3282 11.3612 55.7527 12.6126 55.7527 14.209V21.2421H52.0841V14.7052C52.0841 13.8998 51.8755 13.2741 51.4583 12.8283C51.0411 12.3824 50.48 12.1595 49.7751 12.1595C49.0701 12.1595 48.509 12.3824 48.0918 12.8283C47.6747 13.2741 47.466 13.8998 47.466 14.7052V21.2421H43.7759V9.20387H47.466V10.8003C47.8401 10.2682 48.3436 9.85112 48.9767 9.54903C49.6096 9.23262 50.3217 9.07447 51.113 9.07447Z" fill="#0A275C"/>
<path d="M65.0282 18.114V21.2422H63.1507C61.8128 21.2422 60.7698 20.9186 60.0217 20.2713C59.2736 19.6098 58.8996 18.5382 58.8996 17.0569V12.2675H57.4321V9.20392H58.8996V6.2699H62.5897V9.20392H65.0066V12.2675H62.5897V17.1C62.5897 17.4595 62.676 17.7184 62.8487 17.8767C63.0213 18.0348 63.309 18.114 63.7119 18.114H65.0282Z" fill="#0A275C"/>
<path d="M78.4348 15.0289C78.4348 15.374 78.4131 15.7336 78.37 16.1076H70.0186C70.0762 16.8554 70.3136 17.4307 70.7308 17.8335C71.1624 18.2218 71.6875 18.4159 72.3061 18.4159C73.2268 18.4159 73.867 18.0276 74.2267 17.2509H78.1542C77.9528 18.042 77.5859 18.754 77.0537 19.3868C76.5357 20.0196 75.8812 20.5158 75.0899 20.8754C74.2986 21.2349 73.4139 21.4147 72.4356 21.4147C71.2559 21.4147 70.2057 21.163 69.2849 20.6596C68.3641 20.1562 67.6449 19.4371 67.127 18.5022C66.609 17.5673 66.3501 16.4743 66.3501 15.223C66.3501 13.9718 66.6018 12.8786 67.1054 11.9438C67.6232 11.0089 68.3426 10.2897 69.2634 9.78642C70.1841 9.28301 71.2415 9.03131 72.4356 9.03131C73.6009 9.03131 74.6367 9.2758 75.543 9.76479C76.4494 10.2538 77.1543 10.9514 77.6578 11.8575C78.1758 12.7636 78.4348 13.8207 78.4348 15.0289ZM74.6583 14.058C74.6583 13.4252 74.4424 12.9218 74.0108 12.5479C73.5793 12.1739 73.0398 11.987 72.3924 11.987C71.7737 11.987 71.2487 12.1668 70.8171 12.5262C70.3999 12.8858 70.1409 13.3964 70.0402 14.058H74.6583Z" fill="#0A275C"/>
<path d="M84.0715 11.2102C84.5031 10.5486 85.0426 10.0309 85.6899 9.6569C86.3374 9.26858 87.0566 9.07447 87.8479 9.07447V12.9793H86.8337C85.913 12.9793 85.2224 13.1807 84.762 13.5834C84.3017 13.9717 84.0715 14.6621 84.0715 15.6545V21.2421H80.3813V9.20387H84.0715V11.2102Z" fill="#0A275C"/>
<path d="M98.8913 12.1379V15.2014H89.396V12.1379H98.8913Z" fill="#0A275C"/>
<path d="M111.56 18.567H105.906L105 21.2422H101.137L106.618 6.09732H110.892L116.373 21.2422H112.467L111.56 18.567ZM110.611 15.7192L108.733 10.1748L106.877 15.7192H110.611Z" fill="#0A275C"/>
<path d="M121.73 6.09732V21.2422H118.04V6.09732H121.73Z" fill="#0A275C"/>
<path d="M41.1169 23.8419V28.0917H40.5621V26.165H38.3976V28.0917H37.8428V23.8419H38.3976V25.7077H40.5621V23.8419H41.1169Z" fill="#0A275C"/>
<path d="M46.9844 24.2077C46.8788 24.2077 46.7893 24.1712 46.7161 24.0979C46.643 24.0248 46.6064 23.9354 46.6064 23.8297C46.6064 23.724 46.643 23.6345 46.7161 23.5614C46.7893 23.4883 46.8788 23.4517 46.9844 23.4517C47.0861 23.4517 47.1714 23.4883 47.2405 23.5614C47.3137 23.6345 47.3503 23.724 47.3503 23.8297C47.3503 23.9354 47.3137 24.0248 47.2405 24.0979C47.1714 24.1712 47.0861 24.2077 46.9844 24.2077ZM47.2527 24.7504V28.0916H46.6979V24.7504H47.2527Z" fill="#0A275C"/>
<path d="M53.3868 25.293C53.4845 25.1019 53.6226 24.9536 53.8015 24.8479C53.9844 24.7423 54.2059 24.6894 54.4661 24.6894V25.2625H54.3197C53.6978 25.2625 53.3868 25.5999 53.3868 26.2746V28.0916H52.832V24.7504H53.3868V25.293Z" fill="#0A275C"/>
<path d="M62.7891 26.2929C62.7891 26.3987 62.783 26.5104 62.7708 26.6283H60.1003C60.1206 26.9575 60.2324 27.2156 60.4356 27.4026C60.6429 27.5856 60.8929 27.677 61.1855 27.677C61.4254 27.677 61.6246 27.6221 61.783 27.5123C61.9456 27.3986 62.0595 27.2481 62.1245 27.0611H62.722C62.6326 27.3823 62.4537 27.6445 62.1855 27.8477C61.9172 28.0469 61.5839 28.1465 61.1855 28.1465C60.8685 28.1465 60.584 28.0754 60.332 27.9331C60.0841 27.7908 59.8889 27.5896 59.7466 27.3295C59.6044 27.0652 59.5332 26.7604 59.5332 26.4149C59.5332 26.0694 59.6024 25.7666 59.7405 25.5064C59.8788 25.2463 60.0718 25.0471 60.3197 24.909C60.5718 24.7666 60.8604 24.6955 61.1855 24.6955C61.5026 24.6955 61.783 24.7646 62.0269 24.9029C62.2708 25.041 62.4578 25.2321 62.5879 25.4759C62.722 25.7158 62.7891 25.9881 62.7891 26.2929ZM62.2159 26.1771C62.2159 25.9657 62.1692 25.7848 62.0757 25.6345C61.9822 25.48 61.8542 25.3641 61.6916 25.2869C61.533 25.2057 61.3563 25.165 61.1612 25.165C60.8807 25.165 60.6409 25.2544 60.4417 25.4333C60.2466 25.6122 60.1348 25.8601 60.1064 26.1771H62.2159Z" fill="#0A275C"/>
<path d="M78.8653 24.7504L77.8227 28.0916H77.2495L76.4447 25.4394L75.6399 28.0916H75.0667L74.0181 24.7504H74.5851L75.3533 27.555L76.1825 24.7504H76.7495L77.5604 27.5612L78.3166 24.7504H78.8653Z" fill="#0A275C"/>
<path d="M84.3361 24.2077C84.2304 24.2077 84.1409 24.1712 84.0678 24.0979C83.9947 24.0248 83.958 23.9354 83.958 23.8297C83.958 23.724 83.9947 23.6345 84.0678 23.5614C84.1409 23.4883 84.2304 23.4517 84.3361 23.4517C84.4376 23.4517 84.5231 23.4883 84.5921 23.5614C84.6653 23.6345 84.7019 23.724 84.7019 23.8297C84.7019 23.9354 84.6653 24.0248 84.5921 24.0979C84.5231 24.1712 84.4376 24.2077 84.3361 24.2077ZM84.6043 24.7504V28.0916H84.0495V24.7504H84.6043Z" fill="#0A275C"/>
<path d="M91.3666 28.1465C91.1107 28.1465 90.8811 28.1038 90.678 28.0184C90.4748 27.929 90.3143 27.8071 90.1965 27.6526C90.0787 27.4941 90.0137 27.3132 90.0015 27.11H90.5744C90.5906 27.2766 90.6678 27.4128 90.8059 27.5184C90.9482 27.6242 91.133 27.677 91.3606 27.677C91.5718 27.677 91.7394 27.6303 91.8613 27.5367C91.9832 27.4433 92.0442 27.3254 92.0442 27.1831C92.0442 27.0368 91.9791 26.9291 91.8491 26.86C91.7191 26.7868 91.517 26.7157 91.2448 26.6466C90.9969 26.5815 90.7938 26.5165 90.6353 26.4515C90.4809 26.3824 90.3468 26.2828 90.2331 26.1527C90.1234 26.0186 90.0685 25.8438 90.0685 25.6284C90.0685 25.4577 90.1193 25.3011 90.2209 25.1589C90.3224 25.0166 90.4667 24.9049 90.6536 24.8235C90.8405 24.7382 91.0538 24.6955 91.2935 24.6955C91.6632 24.6955 91.9629 24.789 92.1904 24.976C92.418 25.163 92.5398 25.4191 92.5561 25.7442H92.0015C91.9893 25.5694 91.9182 25.4292 91.7882 25.3235C91.6612 25.2178 91.4906 25.165 91.2752 25.165C91.0761 25.165 90.9177 25.2077 90.7998 25.293C90.682 25.3784 90.6231 25.4902 90.6231 25.6284C90.6231 25.7381 90.6576 25.8295 90.7267 25.9028C90.7999 25.9718 90.8892 26.0287 90.9949 26.0734C91.1046 26.1142 91.2549 26.1609 91.4459 26.2137C91.6856 26.2787 91.8816 26.3438 92.032 26.4088C92.1823 26.4698 92.3103 26.5632 92.4159 26.6893C92.5256 26.8152 92.5825 26.9799 92.5866 27.1831C92.5866 27.3661 92.5358 27.5306 92.4342 27.677C92.3326 27.8234 92.1884 27.9392 92.0015 28.0245C91.8187 28.1059 91.6064 28.1465 91.3666 28.1465Z" fill="#0A275C"/>
<path d="M101.052 26.2929C101.052 26.3987 101.046 26.5104 101.034 26.6283H98.3632C98.3835 26.9575 98.4952 27.2156 98.6984 27.4026C98.9056 27.5856 99.1555 27.677 99.448 27.677C99.6887 27.677 99.8878 27.6221 100.046 27.5123C100.209 27.3986 100.323 27.2481 100.388 27.0611H100.985C100.895 27.3823 100.717 27.6445 100.449 27.8477C100.18 28.0469 99.8472 28.1465 99.448 28.1465C99.1311 28.1465 98.8467 28.0754 98.5948 27.9331C98.3469 27.7908 98.1519 27.5896 98.0097 27.3295C97.8675 27.0652 97.7964 26.7604 97.7964 26.4149C97.7964 26.0694 97.8654 25.7666 98.0036 25.5064C98.1417 25.2463 98.3347 25.0471 98.5826 24.909C98.8345 24.7666 99.123 24.6955 99.448 24.6955C99.7659 24.6955 100.046 24.7646 100.29 24.9029C100.534 25.041 100.721 25.2321 100.851 25.4759C100.985 25.7158 101.052 25.9881 101.052 26.2929ZM100.479 26.1771C100.479 25.9657 100.432 25.7848 100.339 25.6345C100.245 25.48 100.117 25.3641 99.9549 25.2869C99.7964 25.2057 99.6197 25.165 99.4236 25.165C99.1433 25.165 98.9036 25.2544 98.7045 25.4333C98.5094 25.6122 98.3977 25.8601 98.3693 26.1771H100.479Z" fill="#0A275C"/>
<path d="M106.973 23.5798V28.0917H106.418V23.5798H106.973Z" fill="#0A275C"/>
<path d="M115.43 24.7504L113.418 29.6646H112.845L113.503 28.055L112.156 24.7504H112.772L113.821 27.4575L114.857 24.7504H115.43Z" fill="#0A275C"/>
<path d="M121.342 23.8419L121.275 26.8905H120.81L120.743 23.8419H121.342ZM121.066 28.1282C120.961 28.1282 120.871 28.0917 120.798 28.0184C120.725 27.9453 120.688 27.8559 120.688 27.7502C120.688 27.6445 120.725 27.555 120.798 27.4819C120.871 27.4088 120.961 27.3722 121.066 27.3722C121.168 27.3722 121.254 27.4088 121.323 27.4819C121.396 27.555 121.433 27.6445 121.433 27.7502C121.433 27.8559 121.396 27.9453 121.323 28.0184C121.254 28.0917 121.168 28.1282 121.066 28.1282Z" fill="#0A275C"/>
<path d="M11.4924 12.1608C-4.1887 22.6569 9.81387 31.5709 15.7429 23.7549C4.4662 48.4541 -10.9534 17.8279 11.4924 12.1608Z" fill="#5078FF"/>
<path d="M12.0812 21.5823C12.0812 23.3429 10.6539 24.7701 8.89332 24.7701C7.13281 24.7701 5.70557 23.3429 5.70557 21.5823C5.70557 19.8218 7.13281 18.3945 8.89332 18.3945C10.6539 18.3945 12.0812 19.8218 12.0812 21.5823Z" fill="#5078FF"/>
<path d="M12.3496 26.7417C29.2802 35.074 29.9986 18.4903 20.2653 17.2636C47.2939 14.6798 28.4805 43.3467 12.3496 26.7417Z" fill="#0A275C"/>
<path d="M20.2145 21.5209C21.7393 20.6406 23.6889 21.163 24.5692 22.6877C25.4494 24.2124 24.927 26.162 23.4024 27.0423C21.8776 27.9225 19.9281 27.4001 19.0477 25.8755C18.1675 24.3508 18.6899 22.4012 20.2145 21.5209Z" fill="#0A275C"/>
<path d="M24.6823 18.4864C23.433 -0.3419 8.71203 7.32769 12.5163 16.3703C-3.23572 -5.74523 30.9974 -3.78583 24.6823 18.4864Z" fill="#175BD9"/>
<path d="M16.2287 14.2856C14.704 13.4053 14.1816 11.4557 15.0619 9.93094C15.9421 8.40628 17.8918 7.88388 19.4165 8.76414C20.9412 9.64449 21.4636 11.594 20.5833 13.1188C19.703 14.6434 17.7534 15.1659 16.2287 14.2856Z" fill="#175BD9"/>
<path d="M11.4797 12.1608C7.61268 14.7491 5.5509 17.2412 4.72793 19.4101H1.29883C2.91033 16.2983 6.11241 13.5159 11.4797 12.1608Z" fill="#5078FF"/>
</svg>
